<svg xmlns="http://www.w3.org/2000/svg" version="1.1" id="Isometric" x="0px" y="0px" width="452px" height="452px">
  <path class="left" fill="#fcfafa" d=" M320.401 153.508 360.017 130.562 320.338 107.726 280.722 130.672 Z"/>
  <path class="left" fill="#fcfafa" d=" M251.073 193.662 290.689 170.717 251.010 147.881 211.394 170.827 Z"/>
  <path class="left" fill="#fcfafa" d=" M181.634 153.700 221.250 130.755 181.571 107.919 141.955 130.865 Z"/>
  <path class="left" fill="#fcfafa" d=" M250.962 113.545 290.578 90.600 250.899 67.764 211.283 90.710 Z"/>
  <path class="top" fill="#fcfafa" d=" M72.611 159.574 241.249 256.625 241.455 405.414 72.818 308.363 ZM250.867 44.873 419.504 141.925 251.137 239.444 82.499 142.393 ZM429.440 159.079 429.647 307.868 261.279 405.387 261.073 256.598 ZM250.835 21.983 52.755 136.711 53.010 319.836 251.407 434.014 449.487 319.286 449.232 136.161 Z"/>
</svg>


