<svg xmlns="http://www.w3.org/2000/svg" style="isolation:isolate" viewBox="0 0 397 417" width="397" height="417"><defs><clipPath id="a"><path d="M0 0h397v417H0z"/></clipPath></defs><g clip-path="url(#a)" fill="#FCFAFA"><path d="M267.646 142.982l39.616-22.946L267.583 97.2l-39.616 22.946 39.679 22.836zm-69.328 40.129l39.616-22.945-39.679-22.836-39.616 22.946 39.679 22.835zm-69.439-40.13l39.616-22.945L128.816 97.2 89.2 120.146l39.679 22.835zm69.328-39.98l39.616-22.945-39.679-22.836-39.616 22.946 39.679 22.835z"/><path d="M19.856 137.591l168.638 97.051.206 148.789L20.063 286.38l-.207-148.789zM198.112 22.89l168.637 97.052-168.367 97.519L29.744 120.41l168.368-97.52zm178.573 114.206l.207 148.789-168.368 97.519-.206-148.789 168.367-97.519zM198.08 0L0 114.728l.255 183.125 198.397 114.178 198.08-114.728-.255-183.125L198.08 0z"/></g></svg>